<?xml version="1.0" encoding="utf-8"?>
<!-- Generator: Adobe Illustrator 24.0.1, SVG Export Plug-In . SVG Version: 6.00 Build 0)  -->
<svg version="1.1" xmlns="http://www.w3.org/2000/svg" xmlns:xlink="http://www.w3.org/1999/xlink" x="0px" y="0px"
	 viewBox="0 0 319.2 186.1" style="enable-background:new 0 0 319.2 186.1;" xml:space="preserve">
<style type="text/css">
	.st0{fill:none;stroke:#000000;stroke-miterlimit:10;}
</style>
<g id="Layer_1">
</g>
<g id="Layer_2">
	<path class="st0" d="M6.8,180.1c0,0,16.5,1.3,20.1,1.3c0,0,5.7,1.3,5.1-1.3c-0.5-2.5-6.5-8.7-1.1-6.6c5.4,2.2,11.4,6.2,8.4,0.8
		s-6.5-14.6-1.9-11.4s15.1,12.7,5.9,2.4c-9.2-10.3-14.1-16.2-12.4-17.8c1.6-1.6,15.7,7.6,16.1,4.3s-12.6-20-3.9-12.7
		c8.7,7.3,16.8,24.1,13.8,11.4c-3-12.7-3.1-21.9,0.6-15.7c3.7,6.2,11,31.6,11,18.9c0-12.7,5.9,0,5.9,0s7.8,12.8,6.6,5
		c-1.2-7.8,4-0.5,4-0.5s6.6,11,8.6,5.9c2-5.1,7.5,0.3,7.5,0.3s6.1,6.9,18.8,6.8s51.1-1.5,59-17.7c6.9-10.5-3.5-7.5-9.8-6.6
		c-6.3,0.9-33.9,9.7-57.6,5.1c0,0-22.7,3.4-29.3,0.1c-6.6-3.3-7.2-9.4-0.8-9.6c6.4-0.2,9.9-6,9.9-6l0.5,4.2c0,0-0.5-25.9-10.7-26.2
		c-10.3-0.4-5.3-0.4,6.9,1.9s14.4,8.7,15.8,7.1c1.4-1.6,6.9-12.5,9.4-13.2c2.4-0.6,1.6,3.8,6.3,5.8c4.7,2,19.6,10.9,22.4,19.9
		c2.8,9-13.3,2.8-16-0.1c-2.7-2.9-2.9-4.7-5.7-5.9c-2.8-1.3-18.7-6.4-17.5-13.5c1.2-7.1,8.7-8.1,10.5-8.7c1.7-0.5-4.8-3.5-11.2-12.4
		s-8.8-9.6-7.3-3.2c1.5,6.4-11.2,10.6-15.9,13c-4.7,2.3-14.5,6.8-10.5,17.7c4,10.9,5.1,18.1,7.8,18.2c2.6,0.1,6.6-1.2,5.4-2.3
		c-1.2-1.2-6.7-2.3-0.5,7.4c6.1,9.6,18.8,2.8,20.3,0.5c1.5-2.3-5.9,4.4-1,11.6c5,7.2,10.5,12,18.5,5.1c4.3-3.1-0.2,5-0.2,5
		s-1.1,5.4,4.4,5.3c5.5-0.1,17-2.5,18.8-0.4c1.7,2.2,3,3.2,11.6,2.6c8.7-0.5,13.8-2.3,13.3,0.2s-1.8,4.2,3.7,3.9
		c5.5-0.4,17.1-3,22.7-3.4c5.6-0.5,6.8-0.6,6.5,1s1.6,2.4,5.3,1.9s12.1-1,16.1-1.6c4.1-0.6,16-1.6,17.6,0.1c1.6,1.7,6.7,1.9,8.4,1.7
		c1.7-0.2,26.3-2.4,29.4-3c3.1-0.5,5.2,0.1,6.6,1.6c1.4,1.5,9.1,2.5,36.5-2"/>
	<path class="st0" d="M94.6,150.5c0,0,3.4-5.2,0.2-7.4s9.6-2.9,10.6-2.2c1.4,1.1,3.4,10.7-1.8,14.3c-5.2,3.6-1.4-4.6,0.1-5
		c1.4-0.4-2.7,3.1-7.9,2.7c-5.2-0.4,1.7,10.7,5.9,7.8s5.1-5.4,5.3-8.2"/>
	<path class="st0" d="M142.3,131.5c0,0,0,4.1,1.6,5.5c1.6,1.4,8.2,7.3,9.4,8.3c0,0,4.7,3.9,0.5,8.9c-4.1,5-10,12.6-10.4,5.9
		c-0.4-6.7,1.9-8.7-1.2-11.1s-10-5.9-8.3-7.9c1.7-2.1,5.2-3.9,7.1-6.2"/>
	<path class="st0" d="M151.5,147.2c0,0-1.4,2.9-3,4.1"/>
	<path class="st0" d="M38.2,82.5c0,0,8.9-5.8,9.1-8.1c0.1-0.9,0.1-2.3,0.1-2.3s-3.2-0.9-3.1-3.2c0.1-2.3,1.6-2.6,3.1-2.7
		c1.5-0.1,0.4-2.6,0.8-4.3c0.4-1.8,3.2-1.8,4.3-2.7s1.8-5.9,3.2-6.2c1.5-0.3,5.4,5.7,5.9,8.8c0.5,3.1,1.5,10.4-1.2,12.7
		c-2.7,2.3-10.2-2.2-10.2-2.2s-2.3-0.1-2.9-2.5s-1.8-5.3-1.8-5.3s-1.6-5.3-0.3-6.9c1.4-1.6,3.1-2.8,3.1-2.8s6.4-1.8,5.7-4.4
		c-0.7-2.6-7-3.5-8.2-2.2c-1.2,1.3-1,3.1-2.2,3.8s-3.5-1.2-4.7-0.1c-1.1,1.1,1.8,4.7,0.5,5.3c-1.3,0.6-2.6-0.5-3.4,0.8
		c-0.9,1.4,4.1,4,4.9,5c0.8,1,0.5,2-0.7,2.7c-1.2,0.7,2.8,4.5,3.9,4.6"/>
	<path class="st0" d="M41.7,80.1c2.7,1.1,10.1,9.2,12.1,12.8c2.1,3.6-5.3,2.1-5.3,2.1s-4.5-1.3-5.9,4.7s-5.6,7.1-5.6,7.1
		s3.1-1.3,5.1,0c2.1,1.3,5,4.1,7,3.4s6.5-1.5,7.2-0.7s-1.5,2.9,0,3.5c1.5,0.6,6.5-3.1,8.2-1.9c1.7,1.2-1.7,6.2-3.3,6.9
		c-1.6,0.6-5.9-0.5-9-1.7c-3.1-1.3-19.3,2-20.8-2.1s1.1-10.9,2.7-15.5c1.6-4.6,2.1-4,2.6-8c0.5-4.1,0.4-12.9,5.9-15.4
		c5.6-2.5,10.5,5,16.2,5.9c5.7,1,11.7-3,13.1-4.1c1.4-1.1,6.2-0.2,7.4,3.5c1.2,3.7-1.5,13.1-10.7,16.9c-9.2,3.8-8.9,3-4.8-1.7
		c4.1-4.7,5.3-6.7,0.7-11.4s0.2-25.5,3-26.5c2.8-1,7.9,0.3,11.4,0s15.1-3.2,19.9-2.4c4.8,0.7,14.7,1.3,18.1-0.1
		c3.4-1.4,5-3.9,7.5-2.1c2.5,1.7,4.6,2.5,4.2,4.3s-4.4,0.8-4.7,1.1s2.3,0,3.7,1.8s2.4,3.7,1,2.9c-1.4-0.8-5-0.7-6.9-0.6
		c-1.9,0.1-3.2-3.7-3.2-3.7s2.2,2.5-3.3,2.8s-11.5,1.3-12.9,1.9c-1.4,0.6-9.2,3.1-13.8,3.2c-4.6,0.1-11.6-0.8-13.6,0.9
		c-2,1.7-3.4,7,0.3,13.7c3.7,6.7,7.7,16.1,13.8,7.7c6.1-8.5-4.6,9.7-12.7,14.3c-5.2,2.9-7.4,5.5-8.3,7c-0.5,0.8-0.6,1.3-0.6,1.3
		s0.4,5.7-1.8,3.5c-2.2-2.2,1-3.2,1-3.2s1.7-1.4,0-3.1c-1.7-1.6-16.1-7.9-17.5-11.4c-1.4-3.4,1.9-0.1,4.5,0.3
		c2.6,0.4,16.9-11.2,18.8-14.7s4.4-8.7,1.7-12.4c-1.1-1.8-2.1,0.8-2.1,0.8s-5.8-5.9-7.4-8.2"/>
	<path class="st0" d="M91.1,86.1c-0.1-0.4-9.1-2.4-11.7-5.5"/>
	<path class="st0" d="M319.2,2c0,0-160.1,40.1-161.7,40.5c-1.6,0.4-2,6.5,0,6.1c2-0.4,7.9-8.5,2.1-8.9c-2.1-1.2-2.7,1.1-4.6,2.6
		c-1.9,1.5-28,5.9-30.6,6.4s-1.5,2.1-1.5,2.1s6.5,17.2,7.6,18.4c1.1,1.2,4.5-2.3,4.7-2.7c0.3-0.4,19.1-19.1,19.1-19.1
		s4.5-4.1,11.2-5.4S319.2,2,319.2,2"/>
</g>
</svg>
