
<svg version="1.1" stroke="black" xmlns="http://www.w3.org/2000/svg" x="0px" y="0px" viewBox="0 0 223.7 301.3" >

<path class="st0" d="M36.2,161.9c6.2-22.6-7.2-29.6-10-30.4c-2.8-0.7-4.7,1.1-3.1-2.1s12.1-17.9,12.1-17.9l17.4-22.2
	c0,0,0.1-6.2-0.3-7.6c-0.4-1.4-1.7-1.3-5.6-3.1c-4-1.8-0.7-7.2-0.7-7.2c7.1-9.7,10.7-37,11.4-36.4s1.7-2,1.7-2
	c2.2-8.3,5.6-32.5,5.6-32.5 M28.9,167.6c0,0-2.5-0.7-2.7,2.5s2.7,0.7,2.7,0.7s6.9-6.6,9.5-7.9s5.6-3,7.1-5.5s6.8-8.6,9.6-11.4
	c2.8-2.8,4.7-1.8,5.2-6.6c0.6-4.8,5.2-20.5,5.2-20.5s3.4-11,3.4-16.7c0-5.6,0-7.1,0-7.1l-5.9-4.9c0,0,1.6,4.2-0.4,4.2
	s-6.1,1.1-7.1,4c-1,2.8-5.6,11.4-6.1,14.4c-0.4,3-3.8,6.2-3.8,6.2c-1.4,1.6-9.5,16.7-14,20.6c-4.5,4-11.7,6.5-14.3,6.9
	c0,0,0.8,2.1,1,4.2c0.1,2.1-1.6,5.5-3.2,4.7c-1.7-0.8-6.1-4-7.2-3.5c-1.1,0.4-0.4,3.7,1.8,5.5c2.3,1.8,3,7.2,2.3,12.6s-1.8,7-3,1.8
	s-2.1-11.4-2.1-11.4s-4,5.7-4.5,4c-0.6-1.7,1.1-3.8,1.3-5.4c0.1-1.6-2.7-1.3-2.5-3.5c0.1-2.3,1.3-2.5,1-3.8s-3.4-6.5,0.1-12.8
	c3.5-6.4,12.6-9.2,15.5-8.2 M42.7,220.8c0,0,7.9,8,16.2,3.2s12.3-8.5,9.9-20.3c0,0,9.2,10.6-2.4,17.8s-15.2,12.3-11.6,14.3
	s14.9,1.8,17.4,1.3c2.5-0.6,19.6-1.6,23.8-1.4c4.2,0.1,15.4-1.6,19.6-3.4c4.2-1.8,14.8-3.5,16.1-2c1.3,1.6,4.2,8.6,6.9,12
	c2.7,3.4,20.5,11.7,24,13.7c3.5,2,5.9,5.4,6.8,8.3s6.1,2.3,8,1.3c2-1-5.8-1.4-4.7-15.2c0,0-13.6-11.4-16.4-16.1 M153.2,202.3
	c-0.3,0.4-4.5,6.1-9.3,3.4s-4.8-2.7-12.7-2c-7.9,0.7-15.4-1.4-18.4-2.3c-3-0.8-19.1,0.7-35.3,11.6c0,0,33.7-0.4,39.5,0
	c5.8,0.4,18.2-2.4,23.3,2.1c5.1,4.5,14.1,16.7,14.1,16.7s-8.5-22-8.3-22.7s4.8,5.2,7.5,3c2.7-2.3,7.5-7.8,9.2-5.2
	c1.7,2.5-5.2,10.7-10.3,8.5 M197.3,253.4c5.6-17.5-21.3-5.5-21.3-5.5 M182.7,267.1c1,0.4,13.1,4.7,15.3-0.7c2.2-5.4-0.8-7.8-4-11
	c-3.2-3.2,1.7-17.5,8.2-15.2c6.5,2.3,3.8,12.7,3.2,13.3c-0.6,0.6-5.2,4.8-4.4,6.4c0.8,1.6,3.3,1.1,5.4-1.7
	c2.1-2.8,9.3-14.7,0.5-18.2 M176.8,270.9c0,0,6.8-3.5,7.6,0c0.8,3.5-7.2,3.7-9.3,3.7c0,0,10.7,21.3,15,24.6c4.2,3.2,6.1,0.7,6.9,0
	s25.4-16.4,26-20.5c0.6-4.1,0.1-19.9-2-26.3s-12-42.8-34-78.2c-5.1-8.3-19.2-25.3-19.2-25.3s-4.8-4.8-10.2-1
	c-5.4,3.8-20.3,15.2-22.4,18.2c-2.1,3-3,6.4-2.5,8.9c0.4,2.5,3.5,10.2,3.5,10.2 M176,178.1c3,3.2,1.1,5.6-0.8,8.6
	c-2,3-0.7,5.8,2.7,1.8c3.4-4,5-5.6,2.3-9.7c-2.7-4.1-7.6-4.1-10.3-4c-2.7,0.1-5.8,3-6.8,4.7c-1,1.7-3.4,1.3-5.9,1.8
	c-2.5,0.6-13.4,8.6-13.4,8.6 M76.6,107.1c-1.3,2.5-1,7.6-0.4,15.2c0.6,7.6,0.6,8.6-2,17.4c-2.5,8.8-12.3,18.4-14.1,21.5
	c-1.8,3.1-1.4,5.5-3.6,8.6s-4.2,4-4.2,4s0.4-2.1,1.7,5.4c1.3,7.5-7.1,15.7-7.1,15.7c-6.4,12.4-20.6,8.8-28.1,6.4
	c-7.5-2.3-9-12.2-8.3-5.7c0.7,6.5,19.9,16.9,28,21s13.4-2.2,18-5.6s9.8-15.1,9.6-18.3c-0.1-3.2,8.2-3.1,14.1-4
	c5.9-0.8,24.7-2.7,31.1-3.4c6.4-0.7,23.6,5.8,25.6,6.6c2,0.8,4.1,2.1,6.9,1.8c2.8-0.3,4.1,0.4,4.7,0.6c0.6,0.1,11,6.6,14.2,9.5
	c3.2,2.8,8.4-1.6,10.8-5.4c2.4-3.8-6.5-12.4-8-14.9c-1.6-2.5,0.3-3.7,4.7-2.2c4.4,1.6,1.1,4.4,1.1,4.4 M60.2,36.3
	c1.1,11.6-6.2,26.1-7.5,33.5c-1.3,7.3,0.6,7.5,2.5,9.2s6.4,0.6,7.2,1.3c0.8,0.7,3.7,2,4.5,3.8c0.8,1.8-0.4,3.1,3.7,6.2
	c4.1,3.1,4.7,1.8,6.9,2.1c2.3,0.3,4.7,2.5,5.6,4.4c1,1.8-1.6,3.5-2.5,3.4s-3.1,0.7-1,4.5c2.1,3.8,4,5.4,7.1,4.7
	c3.1-0.7,3.5-8.6,4.1-13.7s3.5-30.2,3.5-30.2 M84.8,101.8c3.7-5.5,4.8-28.5,4.7-33.7s1.4-4.1,2.7-7.1c1.3-3,4-54.8,4-54.8"/>
</svg>
