<?xml version="1.0" encoding="utf-8"?>
<!-- Generator: Adobe Illustrator 24.0.1, SVG Export Plug-In . SVG Version: 6.00 Build 0)  -->
<svg version="1.1" id="Layer_1" xmlns="http://www.w3.org/2000/svg" xmlns:xlink="http://www.w3.org/1999/xlink" x="0px" y="0px"
	 viewBox="0 0 514.2 298.5" style="enable-background:new 0 0 514.2 298.5;" xml:space="preserve">
<style type="text/css">
	.st0{fill:none;stroke:#010101;stroke-miterlimit:10;}
</style>
<path class="st0" d="M6.2,238.6c3.3-0.9,36.8-12,42.9-8.3c4,2.4-21.5,20.8-15.8,23.1c5.7,2.4,59.7-17.7,67.2-16.7s-10.1,22.4,0.5,25
	c17,4.2,97.7-31.6,108-30.2c10.4,1.4-22.2,31.6-16.5,31.6c5.7,0,44.8-24.5,62.3-25.9c17.5-1.4,99.5,7.1,102.8,14.2
	s-104.7-2.8-114.2,1.9c-9.4,4.7,24.5,11.3,24.5,13.7s-7.1,3.8-23.6,4.7c-16.5,0.9-42,5.7-42.9,9.9s20.8,0.9,23.6,3.8
	c2.8,2.8-7.5,8-18.4,9c-10.9,0.9-92.5-2.4-95.3,0c-2.8,2.4-4.7-12.3,14.2-16c18.9-3.8,28.8-8,29.3-11.3s-28.3-3.8-32.1-2.4
	c-3.8,1.4,8.5-5.7,29.7-8c21.2-2.4,38.2-16,33-35.4s-30.7-5.7-30.2-54.7c9-32.1-44.8,25-31.1,26.4s52.8-9.7,88.2-40.1
	c39.6-34,62.3-94.8,24.5-59.9c0,0-16,13.7-16,15.8s2.8,2.8,4.7,2.1c1.9-0.7-4.7,4-5.9,9.7c-1.2,5.7-7.8,14.2-11.8,14.2
	c-4,0,1.2-10.4-0.9-10.6s-18.2,18.9-26.7,20.8c-8.5,1.9,19.8-0.7,25.9-24.8c0,0-1.2-5.2-3.1-6.6s7.8-3.1,6.1-9.2
	c-1.7-6.1-17.5-24.3-9.7-34.7c7.8-10.4,23.1-13.2,23.1-13.2s-6.4,10.4-6.4,13c0,2.6,29.5-15.1,30.2-16.7c0.7-1.7-6.8-17.2-8.7-15.6
	c-1.9,1.7-11.3,10.4-11.1,13.2s8.5-9.9,10.4-9c1.9,0.9,6.1,8.2,6.4,10.9c0.3,2.7,264.5,57.6,264.5,57.6"/>
<path class="st0" d="M222.1,52.2c0.5,0.7,5.4,2.1,7.8,1.9c0,0-3.8,3.5-5.2,4.7s8,3.3,9.4-2.1c1.4-5.4-2.4-14.4-12-9.2
	s-16.5,10.6-21.7,9.4c-5.2-1.2-7.3-13.9-20.3-13.4c-13,0.5-6.1,9-4.5,10.6c1.7,1.7,4,4.5-1.9,6.1c-5.9,1.7-21.5,3.8-21.5,3.8
	s33.8,2.6,41.1,7.3c7.3,4.7,4.4,7.5,4.4,7.5l-18.1-3.2c0,0,33.7,1.9,30.2,23.1l-0.4,7.7l8.4,1.8c0,0-17-2.8-21.2-15.1
	c-4.3-12.3-30.7-23.6-37.3-15.3c0,0-10.4,10.1,26.2,27.6c0,0,14.6,4.2,13.7,7.5c-0.9,3.3-12.3,11.3-26.4,9.4
	c-14.2-1.9-13.2-2.6-13.2-5.7c0-3.1-6.4-22.2-20.5-17.9c-14.2,4.2-8.5,17.9-7.8,17.9c0.7,0,20.1,25.2,23.4,25.5c3.3,0.2,5.7,0,8-2.1
	c2.4-2.1,3.3-3.3,3.3-3.3s6.6,6.4,9.2,8c2.6,1.7,5.4,2.8,6.8,3.1c1.4,0.2-0.2,10.1-8.3,19.1c-8,9-9.7,12-12.7,9
	c-3.1-3.1,3.8-9.9,3.5-14.6c-0.2-4.7-3.9-11.6-5.4-15.3c-1.5-3.8-4.2-5-0.2-7.3c4-2.4,5.4-5.2,2.6-12.3
	c-2.8-7.1-12.5-14.9-16.5-16.1c-4-1.2-1.7,5.7,23.4,6.9c0,0,11.1,0.5,6.6-4.7c-4.5-5.2-4-4.5,0.5-3.8c4.5,0.7,9.7,2.8,9.7,2.8
	s-22.6-16.3-26.4-15.6c-3.8,0.7,6.1,1.9,1.7-2.6c-4.5-4.5-19.8-22.6-20.5-31.4c0,0-3.8,5-8.3,4.2c-4.5-0.7-5-4.7-3.8-15.8
	c0,0-8.7,3.1-13.2,1.9c-4.5-1.2-14.4-13-15.6-17.5c-1.2-4.5-0.5-16.7-2.6-15.6c-2.1,1.2-0.2,4.7-1.7,5.4c-1.4,0.7-11.1-8.7-13.2-6.8
	c0,0-4.2,4.2,1.4,10.1c5.7,5.9,7.1,7.1,8.7,9.9s12.3,26.2,16.3,27.8s22.2,4.7,23.1-5.2s1.7-14.9,0.7-14.4c-0.9,0.5,0.5,3.1,3.3,1.9
	c2.8-1.2,13.7-3.8,14.2-5.4c0.5-1.7-3.3-4.5,0,3.1s7.3,10.6,10.6,5.4s2.8-7.5,2.8-7.5s-7.3-0.2-8.7-3.5s-2.8-5.9-3.1-7.8
	c-0.2-1.9-5.9-4-4.7-5.9c1.2-1.9,2.4,0.2,4-0.7s0.9-7.1,2.8-8c1.9-0.9,2.6,0.5,5.2,0s4.2-2.1,5.2-2.1c0.9,0,4,1.7,5.4,1.4
	c1.4-0.2,2.8-2.6,0.9-5.7c-1.9-3.1-11.6-6.6-13.7-7.1s0,1.4-1.2,2.1c-1.2,0.7-3.5-1.9-5.7-0.5s-0.2,2.6-1.9,3.5
	c-1.7,0.9-7.1-0.7-6.6,1.4s3.1,3.3,3.1,4.2s-3.3,0.9-2.6,3.1s4.2,5.9,5.4,3.5s1.7-8.5,4.2-9.9s15.1-3.8,16.5,0.7s6.1,17.2,0.7,27.6
	s-2.6-5,7.1-5.2s11.6,0.7,17.5,9.7c0,0,2.4,1.7-3.3,4.7s-4.7,4.5-4.7,4.5s-4.5,3.5-6.4,0c-1.9-3.5-4.2-9.7,0.9-3.5
	s17.5,24.1,22.4,22.2s12.3-8,16.7-12"/>
</svg>
