<svg width="24" height="24" viewBox="0 0 24 24" fill="none" xmlns="http://www.w3.org/2000/svg">
<path d="M19.1786 3H5.82143C5.33836 3 4.87507 3.19754 4.53348 3.54917C4.1919 3.90081 4 4.37772 4 4.875V18.625C4 19.1223 4.1919 19.5992 4.53348 19.9508C4.87507 20.3025 5.33836 20.5 5.82143 20.5H11.0296V14.5504H8.63895V11.75H11.0296V9.61563C11.0296 7.18789 12.4336 5.84688 14.584 5.84688C15.6139 5.84688 16.6908 6.03594 16.6908 6.03594V8.41875H15.5042C14.3351 8.41875 13.9704 9.16563 13.9704 9.93164V11.75H16.5804L16.163 14.5504H13.9704V20.5H19.1786C19.6616 20.5 20.1249 20.3025 20.4665 19.9508C20.8081 19.5992 21 19.1223 21 18.625V4.875C21 4.37772 20.8081 3.90081 20.4665 3.54917C20.1249 3.19754 19.6616 3 19.1786 3V3Z" fill="white"/>
</svg>
