<?xml version="1.0" encoding="utf-8"?>
<!-- Generator: Adobe Illustrator 24.0.1, SVG Export Plug-In . SVG Version: 6.00 Build 0)  -->
<svg version="1.1" id="Layer_1" xmlns="http://www.w3.org/2000/svg" xmlns:xlink="http://www.w3.org/1999/xlink" x="0px" y="0px"
	 viewBox="0 0 398.21 116.79" style="enable-background:new 0 0 398.21 116.79;" xml:space="preserve">
<style type="text/css">
	.bgLogo{fill:#007FA7;}
	.whiteStroke{fill:#FFFFFF;}
</style>
<g>
	<g>
		<path class="bgLogo" d="M390.89,35.23c-2.21-1.6-6.54-2.67-6.75-5.54c0.25-1.27,1.64-2.32,1.75-3.64c-1.07-2.8-4.21-5.51-7.66-6.02
			C319.62,7.83,259.33,1.51,199.11,0.87C138.88,1.51,78.59,7.83,19.99,20.03c-3.45,0.51-6.59,3.22-7.66,6.02
			c0.1,1.32,1.5,2.37,1.75,3.64c-0.21,2.87-4.54,3.94-6.75,5.54c-4.47,2.38-4.44,15.09-4.32,23.16c-0.12,8.07-0.15,20.78,4.32,23.16
			c2.21,1.6,6.54,2.67,6.75,5.54c-0.25,1.27-1.64,2.32-1.75,3.64c1.07,2.8,4.21,5.51,7.66,6.02c58.6,12.2,118.89,18.52,179.12,19.16
			c60.22-0.64,120.52-6.96,179.12-19.16c3.45-0.51,6.59-3.22,7.66-6.02c-0.1-1.32-1.5-2.37-1.75-3.64c0.21-2.87,4.54-3.94,6.75-5.54
			c4.47-2.38,4.44-15.09,4.32-23.16C395.33,50.32,395.36,37.62,390.89,35.23z"/>
	</g>
	<g>
		<g>
			<g>
				<path class="whiteStroke" d="M22.98,31.14c-0.11,0.09-0.02,0.25,0.12,0.23c12.33-1.81,34.65-5.46,40.69-6.45
					c0.16-0.03,0.14-0.25-0.02-0.25H28.84C24.44,24.67,25.93,28.84,22.98,31.14z"/>
				<path class="whiteStroke" d="M22.98,85.65c-0.11-0.09-0.02-0.25,0.12-0.23c12.33,1.81,34.65,5.46,40.69,6.45
					c0.16,0.03,0.14,0.25-0.02,0.25H28.84C24.44,92.12,25.93,87.95,22.98,85.65z"/>
			</g>
		</g>
		<g>
			<g>
				<path class="whiteStroke" d="M375.23,85.65c0.11-0.09,0.02-0.25-0.12-0.23c-12.33,1.81-34.65,5.46-40.69,6.45
					c-0.16,0.03-0.14,0.25,0.02,0.25h34.92C373.77,92.12,372.28,87.95,375.23,85.65z"/>
				<path class="whiteStroke" d="M375.23,31.14c0.11,0.09,0.02,0.25-0.12,0.23c-12.33-1.81-34.65-5.46-40.69-6.45
					c-0.16-0.03-0.14-0.25,0.02-0.25h34.92C373.77,24.67,372.28,28.84,375.23,31.14z"/>
			</g>
		</g>
	</g>
	<path class="whiteStroke" d="M292.28,63.56h6.04v6.14h-6.04V63.56z"/>
	<g>
		<path class="whiteStroke" d="M91.88,46.31h-7.56L72.8,70.47h7.48l1.84-3.84h11.97l1.84,3.84h7.48L91.88,46.31z M84.52,61.47
			c-0.06-0.08-0.06-0.08-0.06-0.08l1.17-2.86l2.01-4.99h0.94l2.82,7.04h-5.41C85.5,60.64,85.06,60.81,84.52,61.47z"/>
		<path class="whiteStroke" d="M210.98,46.31h-7.56L191.9,70.47h7.48l1.84-3.84h11.97l1.84,3.84h7.48L210.98,46.31z M203.62,61.47
			c-0.06-0.08-0.06-0.08-0.06-0.08l3.17-7.85h0.94l2.82,7.04h-5.41C204.6,60.64,204.16,60.81,203.62,61.47z"/>
		<path class="whiteStroke" d="M122.38,57.56c3.38-3.64,7.07-7.79,9.96-11.24h-8.04l-7.81,8.65h-0.92c-0.71,0-1.28,0.01-2.01,0.91
			c-0.06-0.08-0.06-0.08-0.06-0.08v-9.48h-6.69c-0.09,3.74-0.09,20.41,0,24.15h6.69v-9.43h3l8.9,9.41h8.93
			C130.84,66.65,125.87,61.33,122.38,57.56z"/>
		<path class="whiteStroke" d="M160.48,46.31h-22.62c-0.09,4.04-0.09,20.12,0,24.15h22.62v-6.04h-16.06v-3.45h13.89v-5.44h-12.12
			c-0.58,0.02-1.08,0.13-1.71,0.9c-0.06-0.08-0.06-0.08-0.06-0.08v-4.01h16.06V46.31z"/>
		<path class="whiteStroke" d="M192.26,46.31h-25.2v24.15h6.56v-7.21h10.97c4.78,0,7.68-3.66,7.68-8.76
			C192.26,50.07,192.34,48.11,192.26,46.31z M185.59,55.29c0,1.1-0.43,1.93-1.8,1.93h-8.03l0,0c-0.74,0-1.31-0.02-2.07,0.91
			c-0.06-0.08-0.06-0.08-0.06-0.08v-5.71h11.97V55.29z"/>
		<path class="whiteStroke" d="M249.56,59.68c1.03-0.21,2.98-2.24,2.98-5.97c0-4.21-0.03-5.6-0.11-7.4h-26.61v24.15h6.56v-7.21h11.66
			c1.66,0,2.15,0.79,2.15,2.04v5.18h6.53c0.03-1.83,0.03-3.82,0.03-5.64C252.74,62.44,251.68,60.75,249.56,59.68z M245.75,55.11
			c0,1.21-0.43,2.11-1.86,2.11h-9.38l0,0c-0.74,0-1.31-0.02-2.07,0.91c-0.06-0.08-0.06-0.08-0.06-0.08v-5.71h13.38V55.11z"/>
		<path class="whiteStroke" d="M274.65,57.56c3.38-3.64,7.07-7.79,9.96-11.24h-8.04l-7.81,8.65h-1.23c-0.58,0.02-1.08,0.13-1.71,0.9
			c-0.06-0.08-0.06-0.08-0.06-0.08v-9.47h-6.69c-0.09,3.74-0.09,20.41,0,24.15h6.69v-9.43h3l8.9,9.41h8.93
			C283.11,66.65,278.14,61.33,274.65,57.56z"/>
		<path class="whiteStroke" d="M357.71,46.31h-16.56v24.15h16.56c8.13,0,10.91-3.11,10.91-12.08C368.62,49.42,365.84,46.31,357.71,46.31z
			 M361.64,62.21c0,1.45-0.4,2.21-1.89,2.21h-9.91l0,0c-0.74,0-1.31-0.02-2.07,0.91c-0.06-0.08-0.06-0.08-0.06-0.08V52.35h12.04
			c1.49,0,1.89,0.76,1.89,2.17V62.21z"/>
		<path class="whiteStroke" d="M70.57,46.37L63.2,61.7c-0.26,0.67-0.61,1.64-0.4,2.33l-0.08,0.11L56.8,46.31h-3.19h0h-3.19l-4.95,14.91
			c-0.19,0.57-0.52,1.83-0.24,2.72c-0.08,0.11-0.08,0.11-0.08,0.11l-0.02-0.03v0l-8.49-17.64l-7.06-0.06l11.52,24.15h7.84
			l4.24-13.25c0.16-0.58,0.26-1.23,0.11-1.72l0.08-0.11l4.88,15.08h7.84l11.52-24.15L70.57,46.37z"/>
		<path d="M328.41,59.16c0-1.2,0.05-2.49,0.45-3.33l-0.06-0.12l-1.75,3.34L328.41,59.16z"/>
		<path class="whiteStroke" d="M326.99,46.31l-7.69,15.04c-0.14,0.29-0.51,1.82-0.23,2.69c-0.08,0.11-0.08,0.11-0.08,0.11l-0.54-1.13
			l-8.55-16.71h-8v24.15h6.56v-11.3c0-1.2-0.05-2.49-0.45-3.33l0.06-0.12l0.39,0.74v0l0.57,1.09l0.79,1.51l0,0l5.95,11.41h2.68h2.68
			l5.95-11.41l0,0l0.79-1.51l0.57-1.09v0l0.39-0.74l0.06,0.12c-0.4,0.83-0.45,2.12-0.45,3.33v11.3h6.56V46.31H326.99z"/>
	</g>
</g>
</svg>
