<svg width="48" height="48" viewBox="0 0 48 48" fill="none" xmlns="http://www.w3.org/2000/svg">
<g opacity="0.5">
<path fill-rule="evenodd" clip-rule="evenodd" d="M36 23.5019C36 23.8997 35.842 24.2813 35.5607 24.5626C35.2794 24.8439 34.8978 25.0019 34.5 25.0019H17.121L23.562 31.4399C23.7015 31.5794 23.8121 31.7449 23.8876 31.9271C23.963 32.1094 24.0019 32.3047 24.0019 32.5019C24.0019 32.6991 23.963 32.8944 23.8876 33.0766C23.8121 33.2589 23.7015 33.4244 23.562 33.5639C23.4225 33.7034 23.257 33.814 23.0747 33.8895C22.8925 33.9649 22.6972 34.0038 22.5 34.0038C22.3028 34.0038 22.1075 33.9649 21.9252 33.8895C21.743 33.814 21.5775 33.7034 21.438 33.5639L12.438 24.5639C12.2983 24.4246 12.1875 24.259 12.1119 24.0768C12.0362 23.8946 11.9973 23.6992 11.9973 23.5019C11.9973 23.3046 12.0362 23.1092 12.1119 22.927C12.1875 22.7448 12.2983 22.5792 12.438 22.4399L21.438 13.4399C21.7197 13.1582 22.1017 13 22.5 13C22.8983 13 23.2803 13.1582 23.562 13.4399C23.8437 13.7216 24.0019 14.1036 24.0019 14.5019C24.0019 14.9002 23.8437 15.2822 23.562 15.5639L17.121 22.0019H34.5C34.8978 22.0019 35.2794 22.1599 35.5607 22.4412C35.842 22.7225 36 23.1041 36 23.5019Z" fill="white"/>
</g>
</svg>
