<svg width="48" height="48" viewBox="0 0 48 48" fill="none" xmlns="http://www.w3.org/2000/svg">
<path fill-rule="evenodd" clip-rule="evenodd" d="M12 23.5019C12 23.8997 12.158 24.2813 12.4393 24.5626C12.7206 24.8439 13.1022 25.0019 13.5 25.0019H30.879L24.438 31.4399C24.2985 31.5794 24.1879 31.7449 24.1124 31.9271C24.037 32.1094 23.9981 32.3047 23.9981 32.5019C23.9981 32.6991 24.037 32.8944 24.1124 33.0766C24.1879 33.2589 24.2985 33.4244 24.438 33.5639C24.5775 33.7034 24.743 33.814 24.9253 33.8895C25.1075 33.9649 25.3028 34.0038 25.5 34.0038C25.6972 34.0038 25.8925 33.9649 26.0748 33.8895C26.257 33.814 26.4225 33.7034 26.562 33.5639L35.562 24.5639C35.7017 24.4246 35.8125 24.259 35.8881 24.0768C35.9638 23.8946 36.0027 23.6992 36.0027 23.5019C36.0027 23.3046 35.9638 23.1092 35.8881 22.927C35.8125 22.7448 35.7017 22.5792 35.562 22.4399L26.562 13.4399C26.2803 13.1582 25.8983 13 25.5 13C25.1017 13 24.7197 13.1582 24.438 13.4399C24.1563 13.7216 23.9981 14.1036 23.9981 14.5019C23.9981 14.9002 24.1563 15.2822 24.438 15.5639L30.879 22.0019H13.5C13.1022 22.0019 12.7206 22.1599 12.4393 22.4412C12.158 22.7225 12 23.1041 12 23.5019Z" fill="white"/>
</svg>
