<svg width="28" height="32" viewBox="0 0 28 32" fill="#FFF280"  xmlns="http://www.w3.org/2000/svg">
	<path fill-rule="evenodd" clip-rule="evenodd" d="M7.37501 7.74026C7.37501 6.51926 9.00201 5.81126 10.169 6.28839C11.5059 7.16551 22.8744 13.5681 23.9026 14.4229C24.9309 15.2776 25.2258 16.6348 23.8328 17.6441C22.4399 18.6534 11.3688 25.1695 10.169 25.7354C8.96901 26.3011 7.42501 25.5314 7.37501 24.0994C7.32501 22.6674 7.37501 8.96113 7.37501 7.74026ZM9.05463 8.80026C9.05463 9.11201 9.04513 22.9068 9.02763 23.1905C8.99888 23.6559 9.40263 24.1235 9.96513 23.8461C10.5276 23.5686 22.1554 16.6331 22.6171 16.4535C23.079 16.2738 23.0484 15.816 22.6171 15.53C22.186 15.244 10.3463 8.47001 10 8.17251C9.65376 7.87488 9.05463 8.32163 9.05463 8.80038V8.80026Z" />
</svg>
